<svg width="24" height="24" viewBox="0 0 24 24" fill="none" xmlns="http://www.w3.org/2000/svg">
<g clip-path="url(#clip0_143_23)">
<path d="M8.5 19H2.75C2.02082 18.9995 1.32165 18.7096 0.806041 18.194C0.290431 17.6783 0.000529737 16.9792 0 16.25L0 4.75C0.000529737 4.02082 0.290431 3.32165 0.806041 2.80604C1.32165 2.29043 2.02082 2.00053 2.75 2H17.25C17.9792 2.00053 18.6783 2.29043 19.194 2.80604C19.7096 3.32165 19.9995 4.02082 20 4.75V8.75C20 8.94891 19.921 9.13968 19.7803 9.28033C19.6397 9.42098 19.4489 9.5 19.25 9.5C19.0511 9.5 18.8603 9.42098 18.7197 9.28033C18.579 9.13968 18.5 8.94891 18.5 8.75V4.75C18.5 4.061 17.939 3.5 17.25 3.5H2.75C2.061 3.5 1.5 4.061 1.5 4.75V16.25C1.5 16.939 2.061 17.5 2.75 17.5H8.5C8.69891 17.5 8.88968 17.579 9.03033 17.7197C9.17098 17.8603 9.25 18.0511 9.25 18.25C9.25 18.4489 9.17098 18.6397 9.03033 18.7803C8.88968 18.921 8.69891 19 8.5 19Z" fill="white"/>
<path d="M19.25 7.5H0.75C0.551088 7.5 0.360322 7.42098 0.21967 7.28033C0.0790176 7.13968 0 6.94891 0 6.75C0 6.55109 0.0790176 6.36032 0.21967 6.21967C0.360322 6.07902 0.551088 6 0.75 6H19.25C19.4489 6 19.6397 6.07902 19.7803 6.21967C19.921 6.36032 20 6.55109 20 6.75C20 6.94891 19.921 7.13968 19.7803 7.28033C19.6397 7.42098 19.4489 7.5 19.25 7.5ZM4.75 5.5C4.55109 5.5 4.36032 5.42098 4.21967 5.28033C4.07902 5.13968 4 4.94891 4 4.75V0.75C4 0.551088 4.07902 0.360322 4.21967 0.21967C4.36032 0.0790176 4.55109 0 4.75 0C4.94891 0 5.13968 0.0790176 5.28033 0.21967C5.42098 0.360322 5.5 0.551088 5.5 0.75V4.75C5.5 4.94891 5.42098 5.13968 5.28033 5.28033C5.13968 5.42098 4.94891 5.5 4.75 5.5ZM15.25 5.5C15.0511 5.5 14.8603 5.42098 14.7197 5.28033C14.579 5.13968 14.5 4.94891 14.5 4.75V0.75C14.5 0.551088 14.579 0.360322 14.7197 0.21967C14.8603 0.0790176 15.0511 0 15.25 0C15.4489 0 15.6397 0.0790176 15.7803 0.21967C15.921 0.360322 16 0.551088 16 0.75V4.75C16 4.94891 15.921 5.13968 15.7803 5.28033C15.6397 5.42098 15.4489 5.5 15.25 5.5ZM17.5 24C13.916 24 11 21.084 11 17.5C11 13.916 13.916 11 17.5 11C21.084 11 24 13.916 24 17.5C24 21.084 21.084 24 17.5 24ZM17.5 12.5C14.743 12.5 12.5 14.743 12.5 17.5C12.5 20.257 14.743 22.5 17.5 22.5C20.257 22.5 22.5 20.257 22.5 17.5C22.5 14.743 20.257 12.5 17.5 12.5Z" fill="white"/>
<path d="M17.5 21C17.3011 21 17.1103 20.921 16.9697 20.7803C16.829 20.6397 16.75 20.4489 16.75 20.25V14.75C16.75 14.5511 16.829 14.3603 16.9697 14.2197C17.1103 14.079 17.3011 14 17.5 14C17.6989 14 17.8897 14.079 18.0303 14.2197C18.171 14.3603 18.25 14.5511 18.25 14.75V20.25C18.25 20.4489 18.171 20.6397 18.0303 20.7803C17.8897 20.921 17.6989 21 17.5 21Z" fill="white"/>
<path d="M20.25 18.25H14.75C14.5511 18.25 14.3603 18.171 14.2197 18.0303C14.079 17.8897 14 17.6989 14 17.5C14 17.3011 14.079 17.1103 14.2197 16.9697C14.3603 16.829 14.5511 16.75 14.75 16.75H20.25C20.4489 16.75 20.6397 16.829 20.7803 16.9697C20.921 17.1103 21 17.3011 21 17.5C21 17.6989 20.921 17.8897 20.7803 18.0303C20.6397 18.171 20.4489 18.25 20.25 18.25Z" fill="white"/>
</g>
<defs>
<clipPath id="clip0_143_23">
<rect width="24" height="24" fill="white"/>
</clipPath>
</defs>
</svg>
