<svg width="24" height="24" viewBox="0 0 24 24" fill="none" xmlns="http://www.w3.org/2000/svg">
<path d="M21.5 12.6V3C21.5 2.2 20.8 1.5 20 1.5H3C2.2 1.5 1.5 2.2 1.5 3V20C1.5 20.8 2.2 21.5 3 21.5H12.6" stroke="white" stroke-linecap="round" stroke-linejoin="round"/>
<path d="M16 22.5C19.5899 22.5 22.5 19.5899 22.5 16C22.5 12.4101 19.5899 9.5 16 9.5C12.4101 9.5 9.5 12.4101 9.5 16C9.5 19.5899 12.4101 22.5 16 22.5Z" stroke="white" stroke-linecap="round" stroke-linejoin="round"/>
<path d="M4.5 6.5H8.5" stroke="white" stroke-linecap="round" stroke-linejoin="round"/>
<path d="M6.5 8.5V4.5" stroke="white" stroke-linecap="round" stroke-linejoin="round"/>
<path d="M18.5 6.5H14.5" stroke="white" stroke-linecap="round" stroke-linejoin="round"/>
<path d="M5 15L8 18" stroke="white" stroke-linecap="round" stroke-linejoin="round"/>
<path d="M5 18L8 15" stroke="white" stroke-linecap="round" stroke-linejoin="round"/>
<path d="M13.5 14.5H18.5" stroke="white" stroke-linecap="round" stroke-linejoin="round"/>
<path d="M13.5 17.5H18.5" stroke="white" stroke-linecap="round" stroke-linejoin="round"/>
<path d="M1.5 11.5H11.3" stroke="white" stroke-linecap="round" stroke-linejoin="round"/>
<path d="M11.5 11.3V1.5" stroke="white" stroke-linecap="round" stroke-linejoin="round"/>
</svg>
