<svg width="32" height="32" viewBox="0 0 32 32" fill="none" xmlns="http://www.w3.org/2000/svg">
<path d="M25 9H7C6.73478 9 6.48043 8.89464 6.29289 8.70711C6.10536 8.51957 6 8.26522 6 8C6 7.73478 6.10536 7.48043 6.29289 7.29289C6.48043 7.10536 6.73478 7 7 7H25C25.2652 7 25.5196 7.10536 25.7071 7.29289C25.8946 7.48043 26 7.73478 26 8C26 8.26522 25.8946 8.51957 25.7071 8.70711C25.5196 8.89464 25.2652 9 25 9ZM25 17H7C6.73478 17 6.48043 16.8946 6.29289 16.7071C6.10536 16.5196 6 16.2652 6 16C6 15.7348 6.10536 15.4804 6.29289 15.2929C6.48043 15.1054 6.73478 15 7 15H25C25.2652 15 25.5196 15.1054 25.7071 15.2929C25.8946 15.4804 26 15.7348 26 16C26 16.2652 25.8946 16.5196 25.7071 16.7071C25.5196 16.8946 25.2652 17 25 17ZM25 25H7C6.73478 25 6.48043 24.8946 6.29289 24.7071C6.10536 24.5196 6 24.2652 6 24C6 23.7348 6.10536 23.4804 6.29289 23.2929C6.48043 23.1054 6.73478 23 7 23H25C25.2652 23 25.5196 23.1054 25.7071 23.2929C25.8946 23.4804 26 23.7348 26 24C26 24.2652 25.8946 24.5196 25.7071 24.7071C25.5196 24.8946 25.2652 25 25 25Z" fill="white"/>
</svg>
