<svg width="260" height="272" viewBox="0 0 260 272" fill="none" xmlns="http://www.w3.org/2000/svg">
<path d="M126.128 1.91849C125.908 0.824091 124.943 0 123.786 0C122.466 0 121.396 1.07199 121.396 2.39437C121.396 3.71674 122.466 4.78873 123.786 4.78873C124.874 4.78873 125.793 4.05983 126.081 3.06269C199.49 3.52729 258.856 63.2962 258.856 136.958C258.856 184.481 234.146 226.221 196.898 249.985C195.795 248.25 193.858 247.099 191.653 247.099C188.222 247.099 185.44 249.886 185.44 253.324C185.44 254.35 185.688 255.318 186.127 256.172C167.862 265.559 147.158 270.856 125.219 270.856C71.3818 270.856 24.98 238.957 3.81299 192.994C4.3994 192.558 4.77938 191.858 4.77938 191.07C4.77938 189.748 3.70948 188.676 2.38969 188.676C1.0699 188.676 0 189.748 0 191.07C0 192.393 1.0699 193.465 2.38969 193.465C2.51587 193.465 2.63977 193.455 2.76067 193.436C24.1008 239.812 70.9095 272 125.222 272C147.386 272 168.301 266.639 186.745 257.142C187.882 258.607 189.657 259.549 191.653 259.549C195.085 259.549 197.866 256.762 197.866 253.324C197.866 252.506 197.709 251.724 197.422 251.009C235.039 227.052 260 184.925 260 136.958C260 62.6791 200.147 2.40718 126.128 1.91849Z" fill="black"/>
</svg>
