<svg width="32" height="32" viewBox="0 0 32 32" fill="none" xmlns="http://www.w3.org/2000/svg">
<path d="M11.808 20.7678C13.12 21.9838 14.72 23.1998 16.64 24.1918C16.64 24.1918 19.744 26.0158 24.192 25.8238C25.056 25.7918 25.792 25.0558 25.92 24.1918L26.4 21.0878C26.496 20.4798 26.176 19.9678 25.632 19.7758L21.472 18.7838C21.152 18.6878 20.768 18.7198 20.416 18.9118L17.92 20.3838C17.792 20.4478 17.664 20.4798 17.568 20.4158C16.512 19.9678 15.264 19.2638 14.08 18.1758C12.896 17.0878 12.096 15.9038 11.552 14.8798C11.488 14.7838 11.488 14.6238 11.552 14.5278L12.8 11.9038C12.96 11.5518 12.992 11.1678 12.864 10.8478L11.52 6.78379C11.296 6.23979 10.752 5.98379 10.144 6.14379L7.10401 6.87979C6.24001 7.10379 5.60001 7.93579 5.63201 8.83179C5.82401 12.9598 7.90401 16.1278 7.90401 16.1278C9.05601 17.9198 10.432 19.4238 11.744 20.6398" fill="white"/>
</svg>
