<svg width="13" height="20" viewBox="0 0 13 20" fill="none" xmlns="http://www.w3.org/2000/svg">
<path d="M12.3427 5.25362V6.60845C12.3427 6.73242 12.3029 6.83426 12.2234 6.91395C12.1439 6.99365 12.0423 7.0335 11.9186 7.0335H9.69207C9.48885 8.30863 8.91897 9.34468 7.98242 10.1416C7.04587 10.9386 5.82658 11.4256 4.32456 11.6027C5.80007 13.179 7.8278 15.5521 10.4077 18.7223C10.5314 18.8639 10.5491 19.0145 10.4607 19.1739C10.3901 19.3333 10.262 19.413 10.0764 19.413H7.49205C7.35069 19.413 7.24024 19.3598 7.16073 19.2536C4.45709 16.0037 2.25708 13.4756 0.560684 11.6692C0.481166 11.5895 0.441406 11.4921 0.441406 11.3769V9.69003C0.441406 9.57492 0.483374 9.4753 0.567311 9.39117C0.651247 9.30705 0.750645 9.26499 0.865505 9.26499H2.34985C3.51612 9.26499 4.45489 9.0746 5.16613 8.69383C5.87738 8.31306 6.3302 7.75962 6.52458 7.0335H0.865505C0.74181 7.0335 0.640203 6.99365 0.560684 6.91395C0.481166 6.83426 0.441406 6.73242 0.441406 6.60845V5.25362C0.441406 5.12964 0.481166 5.02781 0.560684 4.94811C0.640203 4.86842 0.74181 4.82857 0.865505 4.82857H6.33903C5.83542 3.82794 4.65147 3.32763 2.7872 3.32763H0.865505C0.750645 3.32763 0.651247 3.28557 0.567311 3.20144C0.483374 3.11732 0.441406 3.0177 0.441406 2.90258V1.13598C0.441406 1.01201 0.481166 0.910178 0.560684 0.830482C0.640203 0.750786 0.74181 0.710938 0.865505 0.710938H11.8921C12.0158 0.710938 12.1174 0.750786 12.1969 0.830482C12.2764 0.910178 12.3162 1.01201 12.3162 1.13598V2.49082C12.3162 2.61479 12.2764 2.71662 12.1969 2.79632C12.1174 2.87602 12.0158 2.91586 11.8921 2.91586H8.80411C9.21937 3.45603 9.50211 4.0936 9.65231 4.82857H11.9186C12.0423 4.82857 12.1439 4.86842 12.2234 4.94811C12.3029 5.02781 12.3427 5.12964 12.3427 5.25362Z" fill="#AEAEAE"/>
</svg>
