<svg width="21" height="21" viewBox="0 0 21 21" fill="none" xmlns="http://www.w3.org/2000/svg">
<g clip-path="url(#clip0_143_28)">
<path fill-rule="evenodd" clip-rule="evenodd" d="M6.21492 10.8922C5.87592 10.2782 5.70292 9.7022 5.70292 9.1672C5.70292 8.5592 5.86492 8.0482 6.18292 7.6032C6.28188 7.46336 6.39297 7.33252 6.51492 7.2122L6.56292 7.1622L6.57092 7.1542L6.56092 7.1632L6.57492 7.1502C6.66649 7.04988 6.77759 6.96931 6.90139 6.91343C7.0252 6.85754 7.1591 6.82752 7.29492 6.8252C7.49992 6.8252 7.63992 6.8272 7.76192 6.8332H7.80892C8.07392 6.8332 8.21492 6.9212 8.36192 7.2212L8.37992 7.2582L8.39992 7.3022L8.72592 8.0692C8.98392 8.6772 9.10792 8.9642 9.13592 9.0192C9.23592 9.2112 9.24192 9.3622 9.15592 9.5292L9.12092 9.5972L9.08292 9.6722C9.034 9.7689 8.97246 9.85868 8.89992 9.9392L8.77892 10.0802C8.67892 10.1982 8.63092 10.2532 8.58892 10.2972L8.35192 10.5472L8.53692 10.8382C8.87992 11.3782 9.29692 11.8752 9.76192 12.2772C10.1479 12.6092 10.5419 12.8772 10.9629 13.0932C11.1149 13.1722 11.4179 13.3072 11.6529 13.4082L11.9379 13.5302L12.1449 13.2972C12.4259 12.9812 12.7149 12.6352 12.8209 12.4822C12.9919 12.2342 13.1349 12.2002 13.4879 12.3242C13.6479 12.3812 14.4709 12.7612 15.1429 13.0862L15.3389 13.1782C15.4119 13.2132 15.4549 13.2352 15.4939 13.2582C15.5739 13.3062 15.6169 13.3462 15.6499 13.3982C15.7479 13.5562 15.7129 14.0772 15.5199 14.6022C15.3389 15.0912 14.4659 15.6832 13.8079 15.7782C13.2299 15.8622 12.7409 15.8342 12.2459 15.6822C11.7769 15.5424 11.3155 15.3778 10.8639 15.1892C10.0439 14.8462 9.24692 14.3242 8.47992 13.6352C7.8694 13.0858 7.31715 12.4749 6.83192 11.8122L6.70592 11.6422C6.52299 11.4053 6.35883 11.1546 6.21492 10.8922ZM3.14492 18.3812L6.22592 17.4562C7.87454 18.569 9.87861 19.0278 11.8472 18.743C13.8158 18.4582 15.6076 17.4503 16.8733 15.9158C18.1389 14.3814 18.7875 12.4305 18.6926 10.4437C18.5977 8.45689 17.7661 6.5767 16.3599 5.1699C14.9538 3.76309 13.074 2.93057 11.0872 2.83473C9.10044 2.73889 7.14924 3.38662 5.6142 4.65155C4.07917 5.91648 3.07041 7.7079 2.7847 9.67634C2.499 11.6448 2.95684 13.6491 4.06892 15.2982L3.14492 18.3812ZM1.89892 15.5722C1.11138 14.1141 0.700291 12.4824 0.702916 10.8252C0.702916 5.3022 5.17992 0.825195 10.7029 0.825195C16.2249 0.825195 20.7029 5.3022 20.7029 10.8252C20.7029 16.3482 16.2249 20.8252 10.7029 20.8252C9.04418 20.8279 7.41106 20.4161 5.95192 19.6272L2.11892 20.7772C1.92862 20.8344 1.72638 20.8389 1.5337 20.7904C1.34102 20.7419 1.16508 20.642 1.02458 20.5015C0.884071 20.361 0.784249 20.1851 0.735713 19.9924C0.687177 19.7997 0.69174 19.5975 0.748916 19.4072L1.89892 15.5722Z" fill="white"/>
</g>
<defs>
<clipPath id="clip0_143_28">
<rect width="21" height="21" fill="white"/>
</clipPath>
</defs>
</svg>
